<svg xmlns="http://www.w3.org/2000/svg" width="46" height="43" viewBox="0 0 46 43"><g><g><path fill="#8d044f" d="M23.266.323c12.559 0 22.616 8.992 22.616 19.8 0 10.804-10.051 19.8-22.616 19.8-2.911 0-5.731-.48-8.397-1.432a14.566 14.566 0 0 1-10.083 4.073c-1.175 0-1.761-1.426-.933-2.254a8.03 8.03 0 0 0 2.12-7.563C2.652 29.206.827 24.737.827 20.124.826 9.294 10.735.323 23.266.323zm0 36.978c11.015 0 19.994-7.715 19.994-17.177 0-9.463-8.98-17.177-19.994-17.177-10.918 0-19.818 7.714-19.818 17.177 0 4.033 1.667 7.953 4.662 11.038.152.157.263.348.323.559a10.671 10.671 0 0 1-.805 7.855 11.909 11.909 0 0 0 5.925-3.515c.37-.405.952-.538 1.462-.335a22.223 22.223 0 0 0 8.25 1.575z"/></g><g><path fill="#8d044f" d="M12.706 16.163a3.964 3.964 0 0 1 3.96 3.961 3.965 3.965 0 0 1-3.96 3.96 3.965 3.965 0 0 1-3.96-3.96 3.964 3.964 0 0 1 3.96-3.96zm0 5.28a1.321 1.321 0 0 0 0-2.64 1.321 1.321 0 0 0 0 2.64z"/></g><g><path fill="#8d044f" d="M23.266 16.163a3.964 3.964 0 0 1 3.96 3.961 3.965 3.965 0 0 1-3.96 3.96 3.965 3.965 0 0 1-3.96-3.96 3.964 3.964 0 0 1 3.96-3.96zm0 5.28a1.321 1.321 0 0 0 0-2.64 1.321 1.321 0 0 0 0 2.64z"/></g><g><path fill="#8d044f" d="M34.002 16.163a3.965 3.965 0 0 1 3.96 3.961 3.965 3.965 0 0 1-3.96 3.96 3.965 3.965 0 0 1-3.96-3.96 3.964 3.964 0 0 1 3.96-3.96zm0 5.28a1.321 1.321 0 0 0 0-2.64 1.321 1.321 0 0 0 0 2.64z"/></g></g></svg>