<?xml version="1.0" encoding="UTF-8"?>
<svg width="89px" height="84px" viewBox="0 0 89 84" version="1.1" xmlns="http://www.w3.org/2000/svg" xmlns:xlink="http://www.w3.org/1999/xlink">
    <!-- Generator: Sketch 62 (91390) - https://sketch.com -->
    <title>Group</title>
    <desc>Created with Sketch.</desc>
    <g id="Page-1" stroke="none" stroke-width="1" fill="none" fill-rule="evenodd">
        <g id="download" fill="#145B26" fill-rule="nonzero">
            <g id="Group">
                <path d="M51.876,45.606 C55.982,41.342 60.051,37.043 64.206,32.827 C67.216,29.773 70.119,29.431 72.451,31.678 C74.779,33.922 74.481,36.898 71.483,39.919 C63.9741246,47.4927059 56.4374069,55.038757 48.873,62.557 C45.843,65.568 43.47,65.554 40.373,62.478 C32.7095888,54.8717612 25.0818385,47.2296774 17.49,39.552 C14.74,36.77 14.544,33.675 16.962,31.623 C19.675,29.319 22.252,29.911 24.628,32.32 C28.946,36.697 33.288,41.05 38.304,46.104 C38.424,43.839 38.555,42.479 38.557,41.118 C38.571,30.972 38.559,20.828 38.557,10.682 C38.557,9.628 38.524,8.572 38.59,7.522 C38.848,3.419 41.031,1.018 44.51,0.962 C48.13,0.903 50.6,3.458 50.632,7.679 C50.714,18.747 50.669,29.814 50.675,40.881 L50.675,45.071 L51.876,45.606 Z" id="Path" stroke="#145B26"></path>
                <path d="M44.595,83.781 C33.533,83.78 22.472,83.818 11.41,83.767 C3.915,83.732 0.357,80.08 0.345827394,72.591 C0.344,71.01 0.36,69.428 0.362,67.847 C0.367,64.771 2.149,63.171 4.974,62.995 C7.989,62.807 9.961,64.37 10.441,67.491 C11.526,74.56 11.646,74.682 18.828,74.687 C36.211,74.698 53.593,74.697 70.976,74.695 C77.386,74.694 78.067,74.079 78.82,67.753 C79.188,64.657 81.001,62.924 84.054,62.966 C87.149,63.007 88.854,64.83 88.964,67.975 C89.02,69.553 88.994,71.136 88.987,72.717 C88.955,80.104 85.297,83.75 77.78,83.773 C66.718,83.807 55.657,83.782 44.595,83.781 L44.595,83.781 Z" id="Path"></path>
            </g>
        </g>
    </g>
</svg>