<svg xmlns="http://www.w3.org/2000/svg" width="9" height="20" viewBox="0 0 9 20"><g><g><path fill="#fff" d="M2.212 19.208c.006-.059.017-.118.017-.177V10.001H.346V6.826h1.887v-.23c.004-.708-.007-1.416.018-2.123.028-.78.192-1.53.613-2.207a2.752 2.752 0 0 1 1.664-1.23C4.935.924 5.359.83 5.779.817c1.03-.03 2.06-.01 3.105-.01v3.148H8.69c-.57.007-1.14.011-1.708.023-.12.002-.24.024-.356.05-.305.07-.533.316-.551.697-.031.681-.02 1.365-.026 2.048 0 .011.01.021.023.046h2.842L8.58 9.99H6.04v8.988c0 .077-.01.154-.015.231z"/></g></g></svg>