<svg xmlns="http://www.w3.org/2000/svg" width="49" height="90" viewBox="0 0 49 90"><g><g><path fill="#77cbea" d="M11.44 81.848l12.886-9.436 12.885 9.436 11.007 8.06V.21H.433v89.698z"/></g><g><path fill="#fff" d="M41.276 43.312c-.197.769-.72 1.31-1.263 1.849-1.955 1.936-3.895 3.886-5.841 5.831-.087.086-.183.164-.31.276.357.351.695.674 1.02 1.009.992 1.021 1.054 2.386.15 3.407-.434.492-1.007.719-1.658.787-.103.921-.517 1.624-1.348 2.039-.188.094-.396.191-.6.199-.327.012-.38.18-.424.455-.153.94-1 1.737-1.957 1.86-.218.028-.291.107-.326.326-.141.888-.647 1.516-1.476 1.845-.83.33-1.648.237-2.336-.337-.591-.492-1.117-1.064-1.665-1.606-.501-.495-.994-.997-1.543-1.549-.341.361-.662.713-.998 1.051-1.105 1.112-2.31 1.103-3.426-.011-.372-.371-.666-.776-.771-1.306-.016-.084-.148-.178-.246-.208-1.036-.324-1.71-1.001-2.04-2.035a.475.475 0 0 0-.271-.26c-1.001-.331-1.691-.98-2.002-1.989-.067-.217-.158-.293-.365-.345-1.38-.345-2.32-1.872-1.885-3.111.12-.345.368-.662.613-.942.337-.385.726-.722 1.2-1.185-.146-.083-.275-.124-.36-.209-1.286-1.277-2.566-2.559-3.847-3.84-.245-.245-.445-.506-.345-.886.139-.526.713-.755 1.164-.453.139.092.259.213.377.331 5.695 5.692 11.388 11.386 17.079 17.081.238.237.483.442.837.415.322-.024.582-.172.709-.482.132-.325.099-.636-.132-.912-.071-.085-.153-.163-.232-.242l-4.032-4.032c-.237-.237-.421-.493-.328-.859.133-.529.695-.764 1.154-.47.12.077.229.179.33.281 1.355 1.351 2.705 2.704 4.059 4.055.346.346.717.446 1.054.295a.833.833 0 0 0 .279-1.343c-.345-.381-.721-.733-1.084-1.098-1.06-1.06-2.12-2.118-3.178-3.179-.365-.367-.436-.739-.218-1.078.236-.368.684-.474 1.052-.239.12.078.228.179.33.282 1.37 1.366 2.735 2.737 4.107 4.101.483.48 1.117.419 1.414-.12.198-.36.127-.727-.23-1.087-.557-.565-1.121-1.124-1.683-1.685-.83-.831-1.663-1.659-2.49-2.493-.35-.352-.413-.714-.202-1.055a.745.745 0 0 1 1.05-.245c.13.083.246.192.356.301 1.354 1.351 2.707 2.703 4.057 4.057.24.242.504.398.863.324a.831.831 0 0 0 .495-1.35c-.082-.106-.181-.198-.276-.292-3.392-3.393-6.784-6.786-10.18-10.175-.096-.098-.224-.217-.347-.23-1.098-.113-2.2-.205-3.322-.305-.088.406-.162.788-.252 1.166a3.594 3.594 0 0 1-4.258 2.709 3.593 3.593 0 0 1-2.76-4.198c.183-.94.352-1.897.668-2.796.982-2.797 4.03-4.544 6.957-4.038 2.53.439 5.057.898 7.586 1.353.243.044.433.047.517-.244a.795.795 0 0 1 .195-.31c.636-.658 1.25-1.343 1.927-1.958 1.002-.911 2.337-.827 3.335.168 2.266 2.258 4.525 4.522 6.787 6.783.054.056.122.107.156.174.215.41.42.825.63 1.239zm-5.381 3.171c-2.634-2.631-5.268-5.261-7.893-7.9a1.257 1.257 0 0 0-.718-.371c-2.331-.41-4.662-.814-6.988-1.251-2.83-.53-5.253 1.007-5.895 3.779a21.933 21.933 0 0 0-.346 1.74c-.044.291-.044.609.025.894a1.996 1.996 0 0 0 2.01 1.547c.967-.025 1.746-.701 1.96-1.708.117-.546.212-1.096.339-1.639.109-.47.434-.701.907-.66 1.358.118 2.714.254 4.072.358.41.031.71.192.994.475 2.705 2.716 5.419 5.425 8.128 8.138.092.094.155.219.222.315l3.465-3.471c-.098-.085-.196-.159-.282-.246zm3.475-2.894c.458-.463.46-.878.003-1.337a7178.562 7178.562 0 0 0-6.758-6.76c-.47-.468-.883-.461-1.361.012-.453.448-.902.901-1.352 1.352-.521.523-.52.908.005 1.433 1.574 1.575 3.148 3.147 4.72 4.721.877.878 1.752 1.757 2.659 2.668.71-.713 1.4-1.398 2.084-2.089zM11.285 51.78c-.223.233-.201.511.004.755.129.154.272.296.425.425.247.208.524.216.757-.006.393-.373.763-.77 1.133-1.147l-1.157-1.156c-.384.369-.787.736-1.162 1.129zm2.334 2.254c-.244.26-.247.516-.047.786.353.478.734.677 1.044.546a.255.255 0 0 0 .085-.053l1.147-1.238-1.133-1.146c-.36.362-.737.726-1.096 1.105zm4.628 4.574c-.288.304-.277.599.015.911.114.122.23.243.358.348.238.195.507.222.73.009.399-.381.769-.791 1.133-1.169l-1.175-1.172c-.358.36-.717.708-1.061 1.073zm-2.318-2.279c-.242.257-.254.522-.062.786.355.487.724.683 1.042.55a.228.228 0 0 0 .086-.049c.392-.419.783-.84 1.158-1.245l-1.142-1.15c-.366.374-.73.735-1.082 1.108z"/></g><g><path fill="#fff" d="M37.59 43.995a.76.76 0 0 1-.756-.77.779.779 0 0 1 .76-.772c.416-.004.795.382.78.794a.779.779 0 0 1-.784.748z"/></g></g></svg>