<svg xmlns="http://www.w3.org/2000/svg" width="48" height="91" viewBox="0 0 48 91"><g><g><path fill="#77cbea" d="M11.16 82.495l12.885-9.436 12.887 9.436 11.006 8.06V.857H.153v89.698z"/></g><g><path fill="#fff" d="M24.635 34.062c2.972 1.36 5.943 2.721 8.915 4.078 1.346.614 2.692 1.231 4.045 1.828.608.27 1.027.67 1.024 1.363-.003.691-.42 1.091-1.033 1.353-.937.4-1.844.876-2.797 1.23-.592.22-.719.56-.713 1.141.03 2.624-.017 5.25.026 7.873.02 1.182-.449 2.065-1.34 2.763-2.797 2.194-6.002 3.124-9.523 2.94-2.969-.154-5.626-1.19-7.974-3.023-.866-.678-1.276-1.522-1.26-2.64.035-2.649-.012-5.297.027-7.946.01-.616-.2-.905-.75-1.116a21.696 21.696 0 0 1-2.455-1.105c-.49-.262-.906-.67-1.355-1.01v-.876c.416-.345.787-.782 1.258-1.019 1.255-.632 2.554-1.174 3.832-1.758 2.97-1.357 5.938-2.717 8.907-4.076zm5.633 11.873c-.609.21-.785.563-.763 1.191a48.24 48.24 0 0 1-.017 4.15c-.017.331-.33.747-.628.93-.19.115-.678-.043-.888-.236-.192-.174-.257-.56-.263-.857-.027-1.298-.012-2.597-.012-4.009-.883.394-1.66.718-2.418 1.085-.823.4-1.612.39-2.445.007-2.07-.95-4.158-1.865-6.239-2.793-.214-.095-.433-.178-.732-.3v.812c0 2.306.03 4.613-.017 6.92-.014.695.241 1.128.77 1.518 2.618 1.928 5.55 2.733 8.771 2.412 2.213-.22 4.255-.969 6.024-2.34.354-.275.782-.74.792-1.127.07-2.69.036-5.384.036-8.219-.736.325-1.337.64-1.97.856zm5.49-4.789c-3.736-1.689-7.466-3.39-11.216-5.046-.317-.14-.818-.088-1.15.061-3.614 1.605-7.21 3.248-10.812 4.881-.16.073-.313.161-.535.276.164.098.24.154.323.192 3.742 1.674 7.483 3.35 11.23 5.011.204.091.495.154.686.08.846-.336 1.671-.726 2.605-1.14-1.142-1.139-2.208-2.195-3.267-3.257-.554-.558-.615-1.11-.184-1.512.41-.383.92-.31 1.46.225 1.121 1.112 2.246 2.22 3.345 3.354.305.316.553.353.95.172 2.118-.967 4.251-1.902 6.377-2.853.148-.065.283-.159.483-.273-.14-.082-.215-.134-.296-.17z"/></g></g></svg>