<svg xmlns="http://www.w3.org/2000/svg" width="19" height="22" viewBox="0 0 19 22"><g><g><path fill="none" stroke="#fff" stroke-linecap="round" stroke-linejoin="round" stroke-miterlimit="20" stroke-width=".5" d="M13.354 3.934v0L9.101 1.479v0L4.847 3.934v0L.595 6.39v9.825l4.253 2.454v0L9.1 21.127v0l4.255-2.457v0l4.253-2.454v0-4.914 0V6.39v0l-4.254-2.457v0z"/></g><g><path fill="none" stroke="#fff" stroke-linecap="round" stroke-linejoin="round" stroke-miterlimit="20" stroke-width=".5" d="M4.847 3.934v4.914L.593 11.302v0V6.39v0l4.254-2.457v0z"/></g><g><path fill="none" stroke="#fff" stroke-linecap="round" stroke-linejoin="round" stroke-miterlimit="20" stroke-width=".5" d="M9.1 6.39v0L4.849 8.847v0-4.914 0L9.1 6.39v0z"/></g><g><path fill="none" stroke="#fff" stroke-linecap="round" stroke-linejoin="round" stroke-miterlimit="20" stroke-width=".5" d="M13.354 3.934v0L9.101 6.39v0L4.847 3.934v0L9.1 1.479v0l4.255 2.455v0z"/></g><g><path fill="none" stroke="#fff" stroke-linecap="round" stroke-linejoin="round" stroke-miterlimit="20" stroke-width=".5" d="M13.354 3.934v4.914L9.101 6.39v0l4.253-2.457v0z"/></g><g><path fill="none" stroke="#fff" stroke-linecap="round" stroke-linejoin="round" stroke-miterlimit="20" stroke-width=".5" d="M17.608 6.39v4.911l-4.254-2.454v0-4.914 0l4.254 2.457v0z"/></g><g><path fill="none" stroke="#fff" stroke-linecap="round" stroke-linejoin="round" stroke-miterlimit="20" stroke-width=".5" d="M17.608 11.301v0l-4.254 2.457v0-4.91 0l4.254 2.453v0z"/></g><g><path fill="none" stroke="#fff" stroke-linecap="round" stroke-linejoin="round" stroke-miterlimit="20" stroke-width=".5" d="M17.608 11.301v4.914l-4.254 2.454v0-4.91 0l4.254-2.458v0z"/></g><g><path fill="none" stroke="#fff" stroke-linecap="round" stroke-linejoin="round" stroke-miterlimit="20" stroke-width=".5" d="M9.1 6.39v4.911L4.849 8.847v0L9.1 6.39v0z"/></g><g><path fill="none" stroke="#fff" stroke-linecap="round" stroke-linejoin="round" stroke-miterlimit="20" stroke-width=".5" d="M13.354 8.847v0l-4.253 2.454v0-4.91 0l4.253 2.456v0z"/></g><g><path fill="none" stroke="#fff" stroke-linecap="round" stroke-linejoin="round" stroke-miterlimit="20" stroke-width=".5" d="M13.354 8.847v4.911l-4.253-2.457v0l4.253-2.454v0z"/></g><g><path fill="none" stroke="#fff" stroke-linecap="round" stroke-linejoin="round" stroke-miterlimit="20" stroke-width=".5" d="M13.354 18.67v0l-4.253 2.456v0L4.847 18.67v0L9.1 16.215v0l4.255 2.454v0z"/></g><g><path fill="none" stroke="#fff" stroke-linecap="round" stroke-linejoin="round" stroke-miterlimit="20" stroke-width=".5" d="M13.354 13.758v4.911l-4.253-2.454v0l4.253-2.457v0z"/></g><g><path fill="none" stroke="#fff" stroke-linecap="round" stroke-linejoin="round" stroke-miterlimit="20" stroke-width=".5" d="M13.354 13.758v0l-4.253 2.457v0-4.914 0l4.253 2.457v0z"/></g><g><path fill="none" stroke="#fff" stroke-linecap="round" stroke-linejoin="round" stroke-miterlimit="20" stroke-width=".5" d="M9.1 11.301v0l-4.252 2.457v0-4.91 0L9.1 11.3v0z"/></g><g><path fill="none" stroke="#fff" stroke-linecap="round" stroke-linejoin="round" stroke-miterlimit="20" stroke-width=".5" d="M4.847 8.847v4.911L.593 11.301v0l4.254-2.454v0z"/></g><g><path fill="none" stroke="#fff" stroke-linecap="round" stroke-linejoin="round" stroke-miterlimit="20" stroke-width=".5" d="M4.847 13.758v4.911L.593 16.215v0-4.914 0l4.254 2.457v0z"/></g><g><path fill="none" stroke="#fff" stroke-linecap="round" stroke-linejoin="round" stroke-miterlimit="20" stroke-width=".5" d="M9.1 16.215v0L4.849 18.67v0-4.91 0L9.1 16.214v0z"/></g><g><path fill="none" stroke="#fff" stroke-linecap="round" stroke-linejoin="round" stroke-miterlimit="20" stroke-width=".5" d="M9.1 11.301v4.914l-4.252-2.457v0L9.1 11.301v0z"/></g></g></svg>