<svg xmlns="http://www.w3.org/2000/svg" width="33" height="22" viewBox="0 0 33 22"><g><g><path fill="none" stroke="#fff" stroke-linecap="round" stroke-linejoin="round" stroke-miterlimit="50" stroke-width=".5" d="M13.354 3.94v0L9.101 1.487v0L4.847 3.94v0L.595 6.398v9.825l4.253 2.454v0L9.1 21.134v0l4.255-2.457v0l4.253-2.454v0-4.914 0-4.911 0L13.354 3.94v0z"/></g><g><path fill="none" stroke="#fff" stroke-linecap="round" stroke-linejoin="round" stroke-miterlimit="50" stroke-width=".5" d="M4.847 3.94v4.915L.593 11.309v0-4.911 0L4.847 3.94v0z"/></g><g><path fill="none" stroke="#fff" stroke-linecap="round" stroke-linejoin="round" stroke-miterlimit="50" stroke-width=".5" d="M9.1 6.397v0L4.849 8.854v0V3.94v0L9.1 6.397v0z"/></g><g><path fill="none" stroke="#fff" stroke-linecap="round" stroke-linejoin="round" stroke-miterlimit="50" stroke-width=".5" d="M13.354 3.94v0L9.101 6.399v0L4.847 3.94v0L9.1 1.486v0l4.255 2.455v0z"/></g><g><path fill="none" stroke="#fff" stroke-linecap="round" stroke-linejoin="round" stroke-miterlimit="50" stroke-width=".5" d="M13.354 3.94v4.915L9.101 6.398v0l4.253-2.457v0z"/></g><g><path fill="none" stroke="#fff" stroke-linecap="round" stroke-linejoin="round" stroke-miterlimit="50" stroke-width=".5" d="M17.608 6.397v4.911l-4.254-2.454v0V3.94v0l4.254 2.457v0z"/></g><g><path fill="none" stroke="#fff" stroke-linecap="round" stroke-linejoin="round" stroke-miterlimit="50" stroke-width=".5" d="M17.608 11.308v0l-4.254 2.457v0-4.91 0l4.254 2.453v0z"/></g><g><path fill="none" stroke="#fff" stroke-linecap="round" stroke-linejoin="round" stroke-miterlimit="50" stroke-width=".5" d="M17.608 11.308v4.914l-4.254 2.454v0-4.91 0l4.254-2.458v0z"/></g><g><path fill="none" stroke="#fff" stroke-linecap="round" stroke-linejoin="round" stroke-miterlimit="50" stroke-width=".5" d="M9.1 6.397v4.911L4.849 8.854v0L9.1 6.397v0z"/></g><g><path fill="none" stroke="#fff" stroke-linecap="round" stroke-linejoin="round" stroke-miterlimit="50" stroke-width=".5" d="M13.354 8.854v0l-4.253 2.454v0-4.91 0l4.253 2.456v0z"/></g><g><path fill="none" stroke="#fff" stroke-linecap="round" stroke-linejoin="round" stroke-miterlimit="50" stroke-width=".5" d="M13.354 8.854v4.911l-4.253-2.457v0l4.253-2.454v0z"/></g><g><path fill="none" stroke="#fff" stroke-linecap="round" stroke-linejoin="round" stroke-miterlimit="50" stroke-width=".5" d="M13.354 18.677v0l-4.253 2.457v0l-4.254-2.457v0L9.1 16.223v0l4.255 2.454v0z"/></g><g><path fill="none" stroke="#fff" stroke-linecap="round" stroke-linejoin="round" stroke-miterlimit="50" stroke-width=".5" d="M13.354 13.765v4.911l-4.253-2.454v0l4.253-2.457v0z"/></g><g><path fill="none" stroke="#fff" stroke-linecap="round" stroke-linejoin="round" stroke-miterlimit="50" stroke-width=".5" d="M13.354 13.765v0l-4.253 2.457v0-4.914 0l4.253 2.458v0z"/></g><g><path fill="none" stroke="#fff" stroke-linecap="round" stroke-linejoin="round" stroke-miterlimit="50" stroke-width=".5" d="M9.1 11.308v0l-4.252 2.457v0-4.91 0L9.1 11.307v0z"/></g><g><path fill="none" stroke="#fff" stroke-linecap="round" stroke-linejoin="round" stroke-miterlimit="50" stroke-width=".5" d="M4.847 8.854v4.911L.593 11.308v0l4.254-2.454v0z"/></g><g><path fill="none" stroke="#fff" stroke-linecap="round" stroke-linejoin="round" stroke-miterlimit="50" stroke-width=".5" d="M4.847 13.765v4.911L.593 16.222v0-4.914 0l4.254 2.457v0z"/></g><g><path fill="none" stroke="#fff" stroke-linecap="round" stroke-linejoin="round" stroke-miterlimit="50" stroke-width=".5" d="M9.1 16.223v0l-4.252 2.454v0-4.911 0L9.1 16.223v0z"/></g><g><path fill="none" stroke="#fff" stroke-linecap="round" stroke-linejoin="round" stroke-miterlimit="50" stroke-width=".5" d="M9.1 11.308v4.914l-4.252-2.457v0L9.1 11.308v0z"/></g><g><path fill="none" stroke="#fff" stroke-linecap="round" stroke-linejoin="round" stroke-miterlimit="50" d="M32 1.484v19.65"/></g></g></svg>