<svg xmlns="http://www.w3.org/2000/svg" width="32" height="46" viewBox="0 0 32 46"><g><g><path fill="#009b3e" d="M16.058.696c8.734 0 15.84 7.106 15.84 15.84 0 2.864-.773 5.67-2.235 8.115L17.41 45.11a1.322 1.322 0 0 1-1.122.642h-.01c-.457 0-.881-.235-1.122-.624L2.582 24.866a15.81 15.81 0 0 1-2.364-8.33c0-8.734 7.105-15.84 15.84-15.84zm11.34 22.6a13.19 13.19 0 0 0 1.868-6.76c0-7.278-5.93-13.218-13.208-13.218-7.28 0-13.218 5.94-13.218 13.218 0 2.46.698 4.86 1.986 6.939l11.43 18.422z"/></g><g><path fill="#009b3e" d="M16.058 8.616c4.367 0 7.92 3.553 7.92 7.92 0 4.291-3.441 7.92-7.92 7.92-4.425 0-7.92-3.581-7.92-7.92 0-4.367 3.553-7.92 7.92-7.92zm0 13.218c2.973 0 5.289-2.422 5.289-5.298 0-2.911-2.378-5.298-5.29-5.298-2.911 0-5.297 2.387-5.297 5.298a5.302 5.302 0 0 0 5.298 5.298z"/></g></g></svg>