<?xml version="1.0" encoding="UTF-8"?>
<svg width="30px" height="30px" viewBox="0 0 30 30" version="1.1" xmlns="http://www.w3.org/2000/svg" xmlns:xlink="http://www.w3.org/1999/xlink">
    <!-- Generator: Sketch 53.2 (72643) - https://sketchapp.com -->
    <title>icon/social/instagram copy</title>
    <desc>Created with Sketch.</desc>
    <g id="Pages" stroke="none" stroke-width="1" fill="none" fill-rule="evenodd">
        <g id="Tattoo-Removal" transform="translate(-1066.000000, -2825.000000)" fill="#58595A">
            <path d="M1080.95349,2832.22706 C1082.33313,2832.22706 1083.61263,2832.56963 1084.792,2833.25476 C1085.97137,2833.93989 1086.90596,2834.86814 1087.59578,2836.0395 C1088.2856,2837.21086 1088.6305,2838.48167 1088.6305,2839.85194 C1088.6305,2841.22221 1088.2856,2842.49302 1087.59578,2843.66438 C1086.90596,2844.83574 1085.97137,2845.76398 1084.792,2846.44912 C1083.61263,2847.13425 1082.33313,2847.47682 1080.95349,2847.47682 C1079.57385,2847.47682 1078.29435,2847.13425 1077.11498,2846.44912 C1075.93561,2845.76398 1075.00102,2844.83574 1074.3112,2843.66438 C1073.62138,2842.49302 1073.27648,2841.22221 1073.27648,2839.85194 C1073.27648,2838.48167 1073.62138,2837.21086 1074.3112,2836.0395 C1075.00102,2834.86814 1075.93561,2833.93989 1077.11498,2833.25476 C1078.29435,2832.56963 1079.57385,2832.22706 1080.95349,2832.22706 Z M1080.95349,2844.82469 C1082.33313,2844.82469 1083.51249,2844.33846 1084.49159,2843.36601 C1085.47069,2842.39356 1085.96024,2841.22221 1085.96024,2839.85194 C1085.96024,2838.48167 1085.47069,2837.31031 1084.49159,2836.33786 C1083.51249,2835.36541 1082.33313,2834.87919 1080.95349,2834.87919 C1079.57385,2834.87919 1078.39449,2835.36541 1077.41539,2836.33786 C1076.43629,2837.31031 1075.94674,2838.48167 1075.94674,2839.85194 C1075.94674,2841.22221 1076.43629,2842.39356 1077.41539,2843.36601 C1078.39449,2844.33846 1079.57385,2844.82469 1080.95349,2844.82469 Z M1090.76672,2831.89554 C1090.72221,2832.38177 1090.53307,2832.80169 1090.19929,2833.15531 C1089.8655,2833.50892 1089.45384,2833.68573 1088.96429,2833.68573 C1088.47474,2833.68573 1088.05195,2833.50892 1087.69591,2833.15531 C1087.33988,2832.80169 1087.16186,2832.38177 1087.16186,2831.89554 C1087.16186,2831.40932 1087.33988,2830.9894 1087.69591,2830.63578 C1088.05195,2830.28216 1088.47474,2830.10535 1088.96429,2830.10535 C1089.45384,2830.10535 1089.87663,2830.28216 1090.23266,2830.63578 C1090.5887,2830.9894 1090.76672,2831.40932 1090.76672,2831.89554 Z M1095.84022,2833.68573 C1095.88473,2834.92339 1095.90698,2836.9788 1095.90698,2839.85194 C1095.90698,2842.72508 1095.8736,2844.79153 1095.80685,2846.0513 C1095.74009,2847.31106 1095.55094,2848.40506 1095.23941,2849.33331 C1094.83887,2850.43836 1094.22694,2851.39976 1093.40361,2852.2175 C1092.58027,2853.03524 1091.6123,2853.64302 1090.49969,2854.04084 C1089.5651,2854.35026 1088.46361,2854.53812 1087.19524,2854.60442 C1085.92686,2854.67072 1083.84628,2854.70388 1080.95349,2854.70388 C1078.0607,2854.70388 1075.98012,2854.67072 1074.71174,2854.60442 C1073.44337,2854.53812 1072.34188,2854.32816 1071.40729,2853.97454 C1070.29468,2853.62092 1069.32671,2853.03524 1068.50337,2852.2175 C1067.68004,2851.39976 1067.06811,2850.43836 1066.66757,2849.33331 C1066.35604,2848.40506 1066.16689,2847.31106 1066.10013,2846.0513 C1066.03338,2844.79153 1066,2842.72508 1066,2839.85194 C1066,2836.9788 1066.03338,2834.91234 1066.10013,2833.65258 C1066.16689,2832.39282 1066.35604,2831.29881 1066.66757,2830.37057 C1067.06811,2829.26551 1067.68004,2828.30411 1068.50337,2827.48637 C1069.32671,2826.66863 1070.29468,2826.06085 1071.40729,2825.66303 C1072.34188,2825.35362 1073.44337,2825.16576 1074.71174,2825.09945 C1075.98012,2825.03315 1078.0607,2825 1080.95349,2825 C1083.84628,2825 1085.92686,2825.03315 1087.19524,2825.09945 C1088.46361,2825.16576 1089.5651,2825.35362 1090.49969,2825.66303 C1091.6123,2826.06085 1092.58027,2826.66863 1093.40361,2827.48637 C1094.22694,2828.30411 1094.83887,2829.26551 1095.23941,2830.37057 C1095.55094,2831.29881 1095.75121,2832.40387 1095.84022,2833.68573 Z M1092.6359,2848.60397 C1092.90293,2847.85254 1093.08095,2846.65908 1093.16996,2845.0236 C1093.21446,2844.05115 1093.23671,2842.68088 1093.23671,2840.91279 L1093.23671,2838.79109 C1093.23671,2836.9788 1093.21446,2835.60853 1093.16996,2834.68028 C1093.08095,2833.0006 1092.90293,2831.80714 1092.6359,2831.0999 C1092.10185,2829.72963 1091.14501,2828.77929 1089.76537,2828.24886 C1089.0533,2827.98365 1087.85168,2827.80684 1086.16051,2827.71844 C1085.18141,2827.67423 1083.80177,2827.65213 1082.0216,2827.65213 L1079.88538,2827.65213 C1078.10521,2827.65213 1076.72557,2827.67423 1075.74647,2827.71844 C1074.09981,2827.80684 1072.89819,2827.98365 1072.14161,2828.24886 C1070.76197,2828.77929 1069.80513,2829.72963 1069.27108,2831.0999 C1069.00405,2831.80714 1068.82603,2833.0006 1068.73702,2834.68028 C1068.69252,2835.65273 1068.67027,2837.023 1068.67027,2838.79109 L1068.67027,2840.91279 C1068.67027,2842.68088 1068.69252,2844.05115 1068.73702,2845.0236 C1068.82603,2846.65908 1069.00405,2847.85254 1069.27108,2848.60397 C1069.84963,2849.97424 1070.80648,2850.92459 1072.14161,2851.45502 C1072.89819,2851.72023 1074.09981,2851.89704 1075.74647,2851.98544 C1076.72557,2852.02964 1078.10521,2852.05174 1079.88538,2852.05174 L1082.0216,2852.05174 C1083.84628,2852.05174 1085.22592,2852.02964 1086.16051,2851.98544 C1087.85168,2851.89704 1089.0533,2851.72023 1089.76537,2851.45502 C1091.14501,2850.88039 1092.10185,2849.93004 1092.6359,2848.60397 Z" id="icon/social/instagram-copy"></path>
        </g>
    </g>
</svg>