<?xml version="1.0" encoding="UTF-8"?>
<svg width="30px" height="30px" viewBox="0 0 30 30" version="1.1" xmlns="http://www.w3.org/2000/svg" xmlns:xlink="http://www.w3.org/1999/xlink">
    <!-- Generator: Sketch 53.2 (72643) - https://sketchapp.com -->
    <title>icon/social/instagram</title>
    <desc>Created with Sketch.</desc>
    <g id="Pages" stroke="none" stroke-width="1" fill="none" fill-rule="evenodd">
        <g id="Tattoo-Removal" transform="translate(-1026.000000, -2825.000000)" fill="#FFFFFF">
            <path d="M1040.95349,2832.22706 C1042.33313,2832.22706 1043.61263,2832.56963 1044.792,2833.25476 C1045.97137,2833.93989 1046.90596,2834.86814 1047.59578,2836.0395 C1048.2856,2837.21086 1048.6305,2838.48167 1048.6305,2839.85194 C1048.6305,2841.22221 1048.2856,2842.49302 1047.59578,2843.66438 C1046.90596,2844.83574 1045.97137,2845.76398 1044.792,2846.44912 C1043.61263,2847.13425 1042.33313,2847.47682 1040.95349,2847.47682 C1039.57385,2847.47682 1038.29435,2847.13425 1037.11498,2846.44912 C1035.93561,2845.76398 1035.00102,2844.83574 1034.3112,2843.66438 C1033.62138,2842.49302 1033.27648,2841.22221 1033.27648,2839.85194 C1033.27648,2838.48167 1033.62138,2837.21086 1034.3112,2836.0395 C1035.00102,2834.86814 1035.93561,2833.93989 1037.11498,2833.25476 C1038.29435,2832.56963 1039.57385,2832.22706 1040.95349,2832.22706 Z M1040.95349,2844.82469 C1042.33313,2844.82469 1043.51249,2844.33846 1044.49159,2843.36601 C1045.47069,2842.39356 1045.96024,2841.22221 1045.96024,2839.85194 C1045.96024,2838.48167 1045.47069,2837.31031 1044.49159,2836.33786 C1043.51249,2835.36541 1042.33313,2834.87919 1040.95349,2834.87919 C1039.57385,2834.87919 1038.39449,2835.36541 1037.41539,2836.33786 C1036.43629,2837.31031 1035.94674,2838.48167 1035.94674,2839.85194 C1035.94674,2841.22221 1036.43629,2842.39356 1037.41539,2843.36601 C1038.39449,2844.33846 1039.57385,2844.82469 1040.95349,2844.82469 Z M1050.76672,2831.89554 C1050.72221,2832.38177 1050.53307,2832.80169 1050.19929,2833.15531 C1049.8655,2833.50892 1049.45384,2833.68573 1048.96429,2833.68573 C1048.47474,2833.68573 1048.05195,2833.50892 1047.69591,2833.15531 C1047.33988,2832.80169 1047.16186,2832.38177 1047.16186,2831.89554 C1047.16186,2831.40932 1047.33988,2830.9894 1047.69591,2830.63578 C1048.05195,2830.28216 1048.47474,2830.10535 1048.96429,2830.10535 C1049.45384,2830.10535 1049.87663,2830.28216 1050.23266,2830.63578 C1050.5887,2830.9894 1050.76672,2831.40932 1050.76672,2831.89554 Z M1055.84022,2833.68573 C1055.88473,2834.92339 1055.90698,2836.9788 1055.90698,2839.85194 C1055.90698,2842.72508 1055.8736,2844.79153 1055.80685,2846.0513 C1055.74009,2847.31106 1055.55094,2848.40506 1055.23941,2849.33331 C1054.83887,2850.43836 1054.22694,2851.39976 1053.40361,2852.2175 C1052.58027,2853.03524 1051.6123,2853.64302 1050.49969,2854.04084 C1049.5651,2854.35026 1048.46361,2854.53812 1047.19524,2854.60442 C1045.92686,2854.67072 1043.84628,2854.70388 1040.95349,2854.70388 C1038.0607,2854.70388 1035.98012,2854.67072 1034.71174,2854.60442 C1033.44337,2854.53812 1032.34188,2854.32816 1031.40729,2853.97454 C1030.29468,2853.62092 1029.32671,2853.03524 1028.50337,2852.2175 C1027.68004,2851.39976 1027.06811,2850.43836 1026.66757,2849.33331 C1026.35604,2848.40506 1026.16689,2847.31106 1026.10013,2846.0513 C1026.03338,2844.79153 1026,2842.72508 1026,2839.85194 C1026,2836.9788 1026.03338,2834.91234 1026.10013,2833.65258 C1026.16689,2832.39282 1026.35604,2831.29881 1026.66757,2830.37057 C1027.06811,2829.26551 1027.68004,2828.30411 1028.50337,2827.48637 C1029.32671,2826.66863 1030.29468,2826.06085 1031.40729,2825.66303 C1032.34188,2825.35362 1033.44337,2825.16576 1034.71174,2825.09945 C1035.98012,2825.03315 1038.0607,2825 1040.95349,2825 C1043.84628,2825 1045.92686,2825.03315 1047.19524,2825.09945 C1048.46361,2825.16576 1049.5651,2825.35362 1050.49969,2825.66303 C1051.6123,2826.06085 1052.58027,2826.66863 1053.40361,2827.48637 C1054.22694,2828.30411 1054.83887,2829.26551 1055.23941,2830.37057 C1055.55094,2831.29881 1055.75121,2832.40387 1055.84022,2833.68573 Z M1052.6359,2848.60397 C1052.90293,2847.85254 1053.08095,2846.65908 1053.16996,2845.0236 C1053.21446,2844.05115 1053.23671,2842.68088 1053.23671,2840.91279 L1053.23671,2838.79109 C1053.23671,2836.9788 1053.21446,2835.60853 1053.16996,2834.68028 C1053.08095,2833.0006 1052.90293,2831.80714 1052.6359,2831.0999 C1052.10185,2829.72963 1051.14501,2828.77929 1049.76537,2828.24886 C1049.0533,2827.98365 1047.85168,2827.80684 1046.16051,2827.71844 C1045.18141,2827.67423 1043.80177,2827.65213 1042.0216,2827.65213 L1039.88538,2827.65213 C1038.10521,2827.65213 1036.72557,2827.67423 1035.74647,2827.71844 C1034.09981,2827.80684 1032.89819,2827.98365 1032.14161,2828.24886 C1030.76197,2828.77929 1029.80513,2829.72963 1029.27108,2831.0999 C1029.00405,2831.80714 1028.82603,2833.0006 1028.73702,2834.68028 C1028.69252,2835.65273 1028.67027,2837.023 1028.67027,2838.79109 L1028.67027,2840.91279 C1028.67027,2842.68088 1028.69252,2844.05115 1028.73702,2845.0236 C1028.82603,2846.65908 1029.00405,2847.85254 1029.27108,2848.60397 C1029.84963,2849.97424 1030.80648,2850.92459 1032.14161,2851.45502 C1032.89819,2851.72023 1034.09981,2851.89704 1035.74647,2851.98544 C1036.72557,2852.02964 1038.10521,2852.05174 1039.88538,2852.05174 L1042.0216,2852.05174 C1043.84628,2852.05174 1045.22592,2852.02964 1046.16051,2851.98544 C1047.85168,2851.89704 1049.0533,2851.72023 1049.76537,2851.45502 C1051.14501,2850.88039 1052.10185,2849.93004 1052.6359,2848.60397 Z" id="icon/social/instagram"></path>
        </g>
    </g>
</svg>