<svg xmlns="http://www.w3.org/2000/svg" width="18" height="18" viewBox="0 0 18 18"><g><g><path fill="#fff" d="M14.06 17.75v-.164-5.959c0-.406-.033-.807-.145-1.199-.376-1.312-1.91-1.764-2.947-.864-.474.413-.74.936-.746 1.575-.003.34-.003.678-.003 1.017v5.588H6.327V6.29h3.893v1.43c.035-.04.048-.054.06-.07.807-1.137 1.925-1.647 3.3-1.638 1.025.007 1.97.263 2.771.93.718.596 1.138 1.38 1.376 2.27a7.19 7.19 0 0 1 .235 1.868c.003 2.182.001 4.363.001 6.546 0 .038-.003.076-.006.125zM2.402 4.878c-.653-.026-1.233-.214-1.67-.712-.518-.59-.627-1.28-.384-2.01.244-.734.795-1.142 1.536-1.295.568-.117 1.126-.073 1.651.191a1.983 1.983 0 0 1 1.065 1.95c-.093.887-.637 1.543-1.48 1.76-.235.06-.479.078-.718.116zM4.348 17.75H.47V6.286h3.878z"/></g><g><path fill="#fff" d="M17.957 17.75H14.06v-.165l.001-5.958a4.33 4.33 0 0 0-.146-1.199c-.376-1.312-1.911-1.764-2.946-.864-.475.413-.741.936-.746 1.575-.003.34-.003.678-.003 1.017-.001 1.808 0 3.616 0 5.424v.164H6.327V6.29h3.894v1.43c.034-.04.048-.054.059-.07.807-1.137 1.925-1.648 3.3-1.638 1.025.007 1.969.263 2.772.93.717.596 1.137 1.38 1.376 2.268.165.613.233 1.238.234 1.87.003 2.182.001 4.363.001 6.546 0 .038-.003.076-.006.125z"/></g><g><path fill="#fff" d="M4.349 17.749H.471V6.286h3.878z"/></g><g><path fill="#fff" d="M2.403 4.878c-.653-.026-1.233-.214-1.67-.712-.518-.59-.627-1.28-.384-2.01.244-.734.795-1.142 1.536-1.295.568-.117 1.126-.073 1.651.191a1.983 1.983 0 0 1 1.065 1.95c-.093.887-.637 1.543-1.48 1.76-.235.06-.479.078-.718.116z"/></g></g></svg>