<?xml version="1.0" encoding="UTF-8"?>
<svg width="25px" height="36px" viewBox="0 0 25 36" version="1.1" xmlns="http://www.w3.org/2000/svg" xmlns:xlink="http://www.w3.org/1999/xlink">
    <!-- Generator: Sketch 53.2 (72643) - https://sketchapp.com -->
    <title>Fill 1</title>
    <desc>Created with Sketch.</desc>
    <g id="Pages" stroke="none" stroke-width="1" fill="none" fill-rule="evenodd">
        <g id="Contact" transform="translate(-546.000000, -1136.000000)" fill="#58595A">
            <path d="M546,1148.24758 C546,1156.93475 553.942285,1160.64669 558.481252,1171.48204 C558.771613,1172.17265 559.198815,1172.17265 559.48918,1171.48204 C564.028147,1160.64626 571,1156.93475 571,1148.24758 C571,1141.48256 565.621591,1136 558.985088,1136 C550.582299,1136 546,1141.48256 546,1148.24758 Z M558.4846,1155 C554.890555,1155 551.976592,1151.86575 551.976592,1148 C551.976592,1144.13425 554.890555,1141 558.4846,1141 C562.078645,1141 564.992608,1144.13425 564.992608,1148 C564.992608,1151.86575 562.078645,1155 558.4846,1155 Z" id="Fill-1"></path>
        </g>
    </g>
</svg>