<svg xmlns="http://www.w3.org/2000/svg" width="241" height="77" viewBox="0 0 241 77"><g><g><path fill="#77cbea" d="M50.183 9.558L33.558-.034 16.933 9.558.308 19.16V57.56l16.625 9.59 16.625 9.604 16.625-9.603 16.625-9.591V19.16z"/></g><g><path fill="#aacd72" d="M16.933 9.558v19.205L.308 38.355V19.16z"/></g><g><path fill="#a44430" d="M33.558 19.16l-16.625 9.603V9.557z"/></g><g><path fill="#e94641" d="M50.183 9.558L33.558 19.16 16.933 9.558 33.558-.034z"/></g><g><path fill="#d3253d" d="M50.183 9.558v19.205L33.558 19.16z"/></g><g><path fill="#d861a0" d="M66.807 19.16v19.194l-16.625-9.59V9.556z"/></g><g><path fill="#83094f" d="M66.807 38.355l-16.625 9.603V28.763z"/></g><g><path fill="#8d044e" d="M66.807 38.355V57.56l-16.625 9.59V47.959z"/></g><g><path fill="#4e4233" d="M33.558 19.16v19.194l-16.625-9.59z"/></g><g><path fill="#5f3433" d="M50.183 28.763l-16.625 9.592V19.16z"/></g><g><path fill="#3e2026" d="M50.183 28.763v19.194l-16.625-9.602z"/></g><g><path fill="#76cbea" d="M50.183 67.151l-16.625 9.603-16.625-9.603 16.625-9.59z"/></g><g><path fill="#59154f" d="M50.183 47.957v19.194l-16.625-9.59z"/></g><g><path fill="#322126" d="M50.183 47.957L33.558 57.56V38.354z"/></g><g><path fill="#204b3b" d="M33.558 38.355l-16.625 9.603V28.763z"/></g><g><path fill="#1b4b55" d="M16.933 28.763v19.194L.308 38.355z"/></g><g><path fill="#00499a" d="M16.933 47.957v19.194L.308 57.561V38.353z"/></g><g><path fill="#014994" d="M33.558 57.56l-16.625 9.59V47.958z"/></g><g><path fill="#1e4b47" d="M33.558 38.355V57.56l-16.625-9.602z"/></g><g><path fill="#8d044f" d="M91.783 38.156c0 .721-.063 1.423-.212 2.125-.659 3.208-3.187 5.694-6.843 5.694-4.037 0-7.16-2.634-7.16-7.713 0-4.973 3.23-7.735 7.118-7.735.914 0 2.316.127 3.74.934 3.145 1.85 3.357 5.271 3.357 6.695zm-12.09 0c0 3.867 2.018 6.056 4.95 6.056 3.762 0 5.015-3.379 5.015-6.14 0-3.72-2.209-5.803-4.993-5.803-2.847 0-4.973 2.253-4.973 5.887z"/></g><g><path fill="#8d044f" d="M95.388 35.564c0-.298.064-.617.468-.83.276-.126.722-.126.977 0 .468.235.468.554.468 1.403.87-1.168 1.975-1.594 3.42-1.594 1.149 0 2.232.34 2.933 1.21.723.915.744 2.042.744 3.168v6.014c0 .275-.085.956-.977.956-.17 0-.34-.042-.51-.106-.404-.212-.467-.553-.467-.85v-5.016c0-1.126-.043-1.38-.043-1.572 0-.573-.128-2.125-2.104-2.125-1.934 0-2.635 1.445-2.847 2.423-.128.552-.107 1.105-.107 1.678v4.612c0 .275-.085.956-.977.956-.171 0-.341-.042-.51-.106-.404-.212-.468-.531-.468-.85z"/></g><g><path fill="#8d044f" d="M117.7 44.956c0 .275-.086.935-.957.935-.49 0-.744-.276-.85-.489-.085-.192-.085-.36-.064-.957a3.837 3.837 0 0 1-.892.83c-.766.51-1.615.7-2.508.7-3.358 0-4.717-2.783-4.717-5.779 0-2.699 1.19-5.653 4.59-5.653 2.273 0 3.23 1.275 3.506 1.636v-4.59c0-.17.042-.34.106-.489.105-.212.382-.467.83-.467.083 0 .275 0 .488.106.403.213.467.531.467.85zm-5.037-8.755c-1.679 0-2.508 1.126-2.806 2.613a8.652 8.652 0 0 0-.127 1.467c0 1.848.468 4.08 2.954 4.08.531 0 1.02-.085 1.444-.32 1.701-.87 1.701-3.25 1.701-3.76 0-.872-.107-1.89-.638-2.742-.7-1.147-1.742-1.338-2.528-1.338z"/></g><g><path fill="#8d044f" d="M123.01 40.791c.042.956.255 1.806.828 2.507.723.893 1.593 1.042 2.444 1.042 1.68 0 2.274-.872 2.656-1.467.34-.573.446-.786.914-.786s1.106.277 1.106.892c0 .086 0 .15-.022.213-.085.404-.447.871-.68 1.126-1.467 1.657-3.379 1.657-3.974 1.657-1.382 0-2.784-.276-3.868-1.487-.956-1.083-1.402-2.614-1.402-4.144 0-2.677 1.445-5.8 5.206-5.8.468 0 .935.042 1.382.148.956.234 1.784.701 2.443 1.593.701.977 1.062 2.36 1.062 3.55 0 .893-.679.956-.956.956zm6.098-1.594c-.085-1.402-.85-2.954-2.868-2.954-.446 0-1.318.042-2.062.702-.849.743-1.04 1.763-1.147 2.252z"/></g><g><path fill="#8d044f" d="M136.258 36.626c.404-1.211 1.615-1.998 2.87-1.998.232 0 1.167 0 1.167.957 0 .744-.595.87-.893.914-.53.085-1.083.169-1.657.53-1.403.979-1.403 2.466-1.403 3.74v4.229c0 .34-.063.893-.977.893-.87 0-.956-.595-.956-.893V35.52c0-.255.085-.893.935-.893.83 0 .914.638.914.893z"/></g><g><path fill="#8d044f" d="M153.785 45.232c-.107.297-.297.659-1.106.659-.85 0-1.04-.362-1.125-.68l-1.68-5.801a11.105 11.105 0 0 1-.382-1.933c-.085.7-.149 1.253-.446 2.294l-1.466 5.398c-.085.318-.277.722-1.169.722-.85 0-1.02-.383-1.127-.68l-2.953-9.308a1.247 1.247 0 0 1-.064-.403c0-.425.383-.872 1.084-.872.637 0 .828.447.913.724l1.764 6.034c.234.892.298 1.36.383 1.955.233-1.126.233-1.148.425-1.891l1.658-6.142c.084-.318.276-.68 1.062-.68.808 0 .978.383 1.062.68l1.594 5.972c.234.849.382 1.53.49 2.21.126-.85.19-1.02.572-2.508l1.616-5.674c.063-.254.233-.68.913-.68.722 0 1.063.426 1.063.85 0 .128 0 .255-.043.383z"/></g><g><path fill="#8d044f" d="M160.456 30.633c-.657 0-1.19.446-1.19 1.211 0 .66.425 1.17 1.19 1.17.723 0 1.19-.447 1.19-1.17 0-.786-.573-1.21-1.19-1.21zm.978 4.93c0-.255-.085-.935-.978-.935-.871 0-.955.68-.955.935v9.371c0 .595.402.957.976.957.51 0 .765-.298.85-.489.063-.128.106-.297.106-.468z"/></g><g><path fill="#8d044f" d="M167.223 45.678c0 1.701-.043 2.465-.787 3.188-.638.616-1.51.83-2.38.83-.234 0-1.041 0-1.041-.809 0-.53.276-.808.744-.893 1.508-.276 1.529-.488 1.529-2.784v-9.689c0-.277.085-.893.957-.893.913 0 .978.616.978.893zm.212-13.834c0 .723-.47 1.17-1.19 1.17-.766 0-1.19-.51-1.19-1.17 0-.765.53-1.21 1.19-1.21.616 0 1.19.424 1.19 1.21z"/></g><g><path fill="#8d044f" d="M175.737 39.367c1.148.34 3.209.935 3.209 3.251 0 1.361-.702 2.189-1.34 2.614-.807.553-1.932.743-2.91.743-.616 0-2.125-.063-3.21-.977-.977-.828-1.168-1.997-1.168-2.295 0-.722.723-.893 1.04-.893.49 0 .618.256.724.468.297.807.319.893.467 1.127.489.743 1.382 1.041 2.274 1.041 1.254 0 2.189-.659 2.189-1.658 0-1.105-.977-1.38-2.061-1.7l-1.233-.36c-1.17-.383-2.974-.978-2.974-3.018 0-.553.212-3.167 3.866-3.167 3.592 0 4.166 2.444 4.166 2.869 0 .638-.574.829-.893.829-.467 0-.595-.233-.914-.851-.191-.36-.765-1.359-2.443-1.359-.255 0-.828.021-1.233.297a1.362 1.362 0 0 0-.617 1.126c0 .978.85 1.233 1.829 1.531z"/></g><g><path fill="#8d044f" d="M182.897 33.31c0-.828 0-2.358 1.785-2.528.212-.021.425-.021 2.507-.021.659 0 1.318 0 1.89.659.49.553.703 1.317.979 2.593l1.275 5.864c.212 1.105.212 1.169.383 2.146.7-3.357.892-4.25 1.975-8.86.532-2.232 1.255-2.402 2.849-2.402h1.317c1.062.02 2.465.043 2.465 2.083v10.582c0 .489 0 .956-.233 1.467-.32.7-.957 1.06-1.722 1.06-.488 0-.914-.168-1.212-.38-.721-.49-.828-1.211-.828-1.871l.148-9.732-.68 3.038-1.51 5.993c-.402 1.615-.742 2.953-2.675 2.953-1.764 0-2.232-1.444-2.678-3.101-.956-3.804-1.19-4.825-2.104-9.032l.043 9.796c0 .382 0 .765-.213 1.233-.424.87-1.211 1.104-1.784 1.104-.447 0-.936-.148-1.34-.552-.615-.594-.637-1.274-.637-1.763z"/></g><g><path fill="#8d044f" d="M207.203 41.195c.042.467.233 2.04 1.976 2.04.446 0 .85-.127 1.147-.34.32-.192.553-.468.851-.701.233-.191.552-.404 1.04-.404.914 0 1.68.659 1.68 1.488 0 1.02-1.595 2.826-4.909 2.826-4.166 0-5.696-3.04-5.696-5.951 0-3.123 1.85-5.715 5.738-5.715 3.826 0 5.483 2.698 5.483 5.142 0 .934-.382 1.615-1.254 1.615zm3.505-2.146c-.04-.341-.085-.638-.254-.957-.085-.17-.467-.807-1.445-.807-.319 0-.616.064-.85.192-.595.297-.87.87-.978 1.572z"/></g><g><path fill="#8d044f" d="M217.202 36.753c.021-.403.021-.829.233-1.232a1.754 1.754 0 0 1 1.594-.957c.553 0 1 .212 1.34.575.445.467.487.913.53 1.253.234-.297.426-.553.787-.87.744-.66 1.742-.979 2.741-.979 1.02 0 2.02.404 2.677 1.19.638.765.723 1.466.723 2.19v5.737c0 .446-.043.914-.36 1.445a1.93 1.93 0 0 1-1.595.85c-.638 0-1.148-.234-1.53-.787-.404-.552-.446-1.04-.446-1.572v-4.42c0-.319 0-.68-.19-1.02-.214-.425-.639-.659-1.106-.659-.362 0-.659.128-.893.318-.53.468-.553 1.297-.553 2.147v3.761c0 .362-.043.893-.382 1.382a1.947 1.947 0 0 1-1.636.85c-.809-.022-1.445-.489-1.722-1.042-.19-.403-.212-.828-.212-1.19z"/></g><g><path fill="#8d044f" d="M234.9 38.113c.317.17 2.081.702 2.465.83.998.34 3.42 1.168 3.42 3.57 0 .382 0 3.611-4.908 3.611-.893 0-1.7-.063-2.445-.254-1.083-.255-1.742-.702-2.103-1.042a2.363 2.363 0 0 1-.786-1.763c0-1.233 1-1.594 1.615-1.594 1.126 0 1.572.85 1.743 1.147.276.511.531 1.02 1.593 1.02.49 0 1.445-.106 1.445-.807 0-.595-.808-.85-1.297-.999-.233-.085-1.38-.425-1.635-.51-1-.319-3.209-1.02-3.209-3.294 0-.914.425-1.87 1.232-2.57 1.19-.979 2.72-1.042 3.528-1.042 2.932 0 4.824 1.148 4.824 2.592 0 .914-.787 1.615-1.637 1.615-.87 0-1.339-.722-1.509-.978-.212-.339-.466-.722-1.465-.722-.702 0-1.212.255-1.212.702 0 .191.063.361.34.488z"/></g></g></svg>
