<svg xmlns="http://www.w3.org/2000/svg" width="67" height="77" viewBox="0 0 67 77"><g><g><path fill="#77cbea" d="M50.183 9.564L33.558-.028 16.933 9.564.308 19.167v38.399l16.625 9.592 16.625 9.602 16.625-9.602 16.625-9.592V19.167z"/></g><g><path fill="#aacd72" d="M16.933 9.564v19.205L.308 38.36V19.167z"/></g><g><path fill="#a44430" d="M33.558 19.166L16.933 28.77V9.563z"/></g><g><path fill="#e94641" d="M50.183 9.564l-16.625 9.603-16.625-9.603L33.558-.028z"/></g><g><path fill="#d3253d" d="M50.183 9.564v19.205l-16.625-9.602z"/></g><g><path fill="#d861a0" d="M66.808 19.166V38.36l-16.625-9.59V9.562z"/></g><g><path fill="#83094f" d="M66.808 38.36l-16.625 9.604V28.769z"/></g><g><path fill="#8d044e" d="M66.808 38.36v19.206l-16.625 9.591V47.965z"/></g><g><path fill="#4e4233" d="M33.558 19.166V38.36l-16.625-9.59z"/></g><g><path fill="#5f3433" d="M50.183 28.769L33.558 38.36V19.166z"/></g><g><path fill="#3e2026" d="M50.183 28.769v19.194L33.558 38.36z"/></g><g><path fill="#76cbea" d="M50.183 67.157L33.558 76.76l-16.625-9.603 16.625-9.592z"/></g><g><path fill="#59154f" d="M50.183 47.963v19.194l-16.625-9.59z"/></g><g><path fill="#322126" d="M50.183 47.963l-16.625 9.603V38.36z"/></g><g><path fill="#204b3b" d="M33.558 38.36l-16.625 9.604V28.769z"/></g><g><path fill="#1b4b55" d="M16.933 28.769v19.194L.308 38.36z"/></g><g><path fill="#00499a" d="M16.933 47.963v19.194L.308 57.567V38.36z"/></g><g><path fill="#014994" d="M33.558 57.566l-16.625 9.592V47.963z"/></g><g><path fill="#1e4b47" d="M33.558 38.36v19.206l-16.625-9.603z"/></g></g></svg>