<svg xmlns="http://www.w3.org/2000/svg" width="42" height="49" viewBox="0 0 42 49"><g><g><path fill="#1e4b47" d="M31.27 6.603L20.938.642l-10.332 5.96L.273 12.572V36.436l10.332 5.962 10.332 5.968 10.333-5.968 10.332-5.962V12.57z"/></g><g><path fill="#aacd72" d="M10.606 6.603V18.54L.273 24.5V12.57z"/></g><g><path fill="#a44430" d="M20.938 12.57l-10.332 5.97V6.603z"/></g><g><path fill="#e94641" d="M31.27 6.603L20.938 12.57 10.605 6.603 20.938.642z"/></g><g><path fill="#d3253d" d="M31.27 6.603V18.54l-10.333-5.97z"/></g><g><path fill="#d861a0" d="M41.602 12.57V24.5l-10.331-5.96V6.603z"/></g><g><path fill="#83094f" d="M41.602 24.5l-10.331 5.968V18.54z"/></g><g><path fill="#8d044e" d="M41.602 24.5v11.936l-10.331 5.961V30.468z"/></g><g><path fill="#4e4233" d="M20.938 12.57V24.5l-10.332-5.96z"/></g><g><path fill="#5f3433" d="M31.27 18.54L20.938 24.5V12.57z"/></g><g><path fill="#3e2026" d="M31.27 18.54v11.928L20.938 24.5z"/></g><g><path fill="#76cbea" d="M31.27 42.398l-10.333 5.968-10.332-5.968 10.332-5.962z"/></g><g><path fill="#59154f" d="M31.27 30.468v11.93l-10.333-5.962z"/></g><g><path fill="#322126" d="M31.27 30.468l-10.333 5.968V24.5z"/></g><g><path fill="#204b3b" d="M20.938 24.5l-10.332 5.968V18.54z"/></g><g><path fill="#1b4b55" d="M10.606 18.54v11.928L.273 24.5z"/></g><g><path fill="#00499a" d="M10.606 30.468v11.93L.273 36.436V24.5z"/></g><g><path fill="#014994" d="M20.938 36.436l-10.332 5.962v-11.93z"/></g><g><path fill="#1e4b47" d="M20.938 24.5v11.936l-10.332-5.968z"/></g></g></svg>