<svg xmlns="http://www.w3.org/2000/svg" width="20" height="17" viewBox="0 0 20 17"><g><g><path fill="#009b3e" d="M7.916 16.875c-.379-.008-.808-.198-1.174-.52-.993-.877-1.977-1.764-2.966-2.646-.777-.692-1.564-1.376-2.333-2.078a7.447 7.447 0 0 1-.876-.918C.116 10.127.102 9.488.482 8.857a4.71 4.71 0 0 1 1.324-1.423c.618-.438 1.278-.43 1.875.052.36.29.676.636 1.002.968.882.9 1.758 1.804 2.636 2.705.215.22.505.216.704-.013.871-1 1.737-2 2.608-3 1.096-1.258 2.197-2.512 3.292-3.772.726-.835 1.445-1.679 2.171-2.515.312-.36.65-.692 1.078-.92.572-.304 1.259-.203 1.646.25.437.511.456 1.254.068 1.781-.853 1.161-1.698 2.328-2.545 3.493-.845 1.161-1.69 2.322-2.533 3.484-.695.957-1.388 1.917-2.082 2.874-.83 1.142-1.655 2.285-2.493 3.42-.293.397-.686.636-1.317.634z"/></g></g></svg>