<svg xmlns="http://www.w3.org/2000/svg" width="17" height="14" viewBox="0 0 17 14"><g><g><path fill="#fff" d="M-.278 12.484c1.905.16 3.626-.311 5.199-1.497-.787-.036-1.465-.263-2.06-.71A3.526 3.526 0 0 1 1.604 8.52c.53.069 1.04.077 1.555-.07C1.129 7.956.294 6.154.364 4.925c.488.236.986.406 1.58.42-.9-.657-1.42-1.496-1.54-2.554-.092-.818.089-1.588.46-2.177 1.92 2.258 4.352 3.502 7.326 3.71-.023-.21-.054-.402-.062-.595-.06-1.44.534-2.54 1.752-3.293 1.3-.804 3.107-.602 4.208.46.139.134.254.163.442.117a7.547 7.547 0 0 0 1.962-.784c0 .439-.605 1.24-1.42 1.933.21-.038.42-.068.626-.116.219-.05.437-.11.652-.18.208-.065.41-.147.616-.221L17 1.68c-.283.332-.553.678-.855.992-.241.25-.52.469-.79.692a.28.28 0 0 0-.111.244c.045 2.47-.693 4.688-2.194 6.64-1.521 1.98-3.526 3.192-5.982 3.638-1.863.339-3.692.198-5.473-.458a8.827 8.827 0 0 1-1.873-.945z"/></g></g></svg>