<svg xmlns="http://www.w3.org/2000/svg" width="214" height="5" viewBox="0 0 214 5"><g><g><path fill="#fff" d="M209.585 3.774c3.583-.162 3.564-.162 3.106-.57-.07-.063.111-.13.166-.196.307-.365 1.53-.725.511-1.1-.075-.027-.116-.06-.064-.087.558-.288-.71-.527-1.666-.776-.626-.163-1.494-.184-3.114-.164-4.497.058-9.037.086-13.565.096-2.167.005-4.34-.078-6.52-.087-7.76-.032-15.522-.053-23.285-.07-1.842-.004-3.689.027-5.535.03-5.109.009-10.22.005-15.327.019-4.556.01-9.107.045-13.663.062-7.585.03-15.17.057-22.757.077-2.9.008-5.807-.008-8.71-.011C93.422.989 87.684.983 81.946.977 76.661.97 71.375.967 66.09.96 60.636.952 55.182.947 49.732.926 43.535.903 37.345.844 31.148.836c-9.104-.008-18.21.019-27.316.02C1.45.856.852.883.847 1.16c-.003.248.23.499.623.743.67.417 1.715.827 2.272 1.246.311.234.998.419 2.65.564.771.07 1.43.154 2.155.228 1.37.142 2.688.296 4.831.155.317-.021.887.008 1.341.01 3.628.014 7.257.035 10.886.036 3.964 0 7.935-.04 11.89-.024 16.847.064 33.684.163 50.534.212 20.611.059 41.222.015 61.827-.076 10.226-.045 20.467-.082 30.697-.071 7.655.008 15.302.1 22.956.148 2.44.014 4.892.005 7.337 0 1.44-.002 2.916-.076 2.838-.235-.046-.093-1.543-.181-2.449-.263-.309-.028-.805-.031-1.65-.06z"/></g><g><path fill="#fff" d="M209.585 3.774c.845.028 1.341.03 1.65.059.906.082 2.403.17 2.45.263.077.159-1.4.233-2.839.236-2.445.004-4.898.013-7.337-.001-7.654-.047-15.3-.14-22.956-.148-10.23-.011-20.47.026-30.697.07-20.605.092-41.216.136-61.827.077-16.85-.05-33.687-.148-50.534-.212-3.955-.015-7.926.025-11.89.024-3.629-.001-7.258-.022-10.886-.036-.454-.002-1.024-.031-1.34-.01-2.144.14-3.463-.013-4.832-.155-.726-.074-1.384-.158-2.156-.228-1.65-.145-2.338-.33-2.649-.564-.557-.42-1.602-.83-2.272-1.246-.393-.244-.626-.495-.623-.743C.851.883 1.45.856 3.832.856 12.938.855 22.044.828 31.148.836c6.197.008 12.387.067 18.584.09 5.45.02 10.904.026 16.357.034 5.286.007 10.572.01 15.858.017 5.738.006 11.476.012 17.214.02 2.904.003 5.81.019 8.711.01 7.587-.02 15.172-.046 22.757-.076 4.556-.017 9.107-.051 13.663-.062C149.4.855 154.51.859 159.62.85c1.846-.004 3.693-.035 5.535-.031 7.763.017 15.525.038 23.284.07 2.181.009 4.354.092 6.521.087 4.528-.01 9.068-.038 13.565-.096 1.62-.02 2.488 0 3.114.164.956.249 2.224.488 1.666.776-.052.028-.01.06.064.088 1.018.374-.204.734-.51 1.099-.056.066-.238.133-.167.197.458.407.477.407-3.106.569z"/></g></g></svg>