<svg width="137" height="4" viewBox="0 0 137 4" fill="none" xmlns="http://www.w3.org/2000/svg">
<path d="M133.958 3.3301C136.247 3.19277 136.235 3.19277 135.942 2.8469C135.898 2.7935 136.013 2.7367 136.048 2.68075C136.244 2.37133 137.026 2.06616 136.375 1.74826C136.327 1.72537 136.301 1.6974 136.334 1.67451C136.69 1.43037 135.88 1.22776 135.27 1.01668C134.87 0.878505 134.315 0.860703 133.281 0.877658C130.408 0.926825 127.508 0.950561 124.616 0.959038C123.232 0.963277 121.844 0.892916 120.452 0.885287C115.495 0.85816 110.537 0.840358 105.579 0.825947C104.402 0.822556 103.222 0.848835 102.043 0.851378C98.7798 0.859008 95.5152 0.855617 92.2532 0.867485C89.3431 0.875962 86.4362 0.905632 83.5261 0.920043C78.6813 0.945475 73.8364 0.968363 68.9903 0.985318C67.138 0.992099 65.2812 0.978536 63.4269 0.975993C59.7605 0.969211 56.0955 0.964125 52.4304 0.959038C49.0546 0.953104 45.6783 0.950561 42.3025 0.944627C38.8189 0.937845 35.3352 0.933607 31.8541 0.915805C27.8958 0.896307 23.942 0.846292 19.9837 0.83951C14.1687 0.832729 8.3523 0.855617 2.53595 0.856465C1.01447 0.856465 0.632507 0.879353 0.629314 1.11417C0.627397 1.3244 0.776224 1.53718 1.02725 1.74402C1.4552 2.09752 2.12268 2.44508 2.47846 2.80028C2.67711 2.99864 3.11592 3.15547 4.17112 3.27839C4.66359 3.33773 5.08452 3.40894 5.5476 3.47167C6.42267 3.59204 7.26453 3.72259 8.63335 3.60306C8.83583 3.58526 9.19991 3.60985 9.4899 3.61154C11.8072 3.62341 14.1252 3.64121 16.4432 3.64206C18.9752 3.64206 21.5116 3.60815 24.0378 3.62171C34.7986 3.67597 45.5531 3.75989 56.3158 3.80143C69.4809 3.85144 82.6459 3.81415 95.8071 3.737C102.339 3.69886 108.88 3.66749 115.414 3.67682C120.304 3.6836 125.188 3.76159 130.077 3.80228C131.636 3.81415 133.202 3.80652 134.764 3.80228C135.684 3.80058 136.626 3.73785 136.577 3.60306C136.547 3.52423 135.591 3.44963 135.012 3.38011C134.815 3.35638 134.498 3.35384 133.958 3.32925V3.3301Z" fill="#8d044f"/>
<path d="M133.958 3.329C134.498 3.35274 134.815 3.35443 135.012 3.37902C135.591 3.44853 136.547 3.52313 136.577 3.60197C136.626 3.73675 135.683 3.79948 134.764 3.80203C133.202 3.80542 131.635 3.81305 130.077 3.80118C125.188 3.76134 120.305 3.6825 115.414 3.67572C108.88 3.66639 102.34 3.69776 95.8071 3.73506C82.6459 3.81305 69.4809 3.85035 56.3158 3.80033C45.5531 3.75795 34.7986 3.67487 24.0378 3.62062C21.5116 3.6079 18.9752 3.64181 16.4432 3.64096C14.1252 3.64011 11.8072 3.62231 9.4899 3.61044C9.19991 3.60875 8.83583 3.58416 8.63399 3.60197C7.26453 3.72065 6.42203 3.59095 5.5476 3.47057C5.08388 3.40784 4.66359 3.33663 4.17048 3.27729C3.11656 3.15437 2.67711 2.99754 2.47846 2.79918C2.12268 2.44314 1.4552 2.09557 1.02725 1.74293C0.776224 1.53608 0.627397 1.32331 0.629314 1.11307C0.631869 0.878255 1.01447 0.855367 2.53595 0.855367C8.3523 0.854519 14.1687 0.831631 19.9837 0.838412C23.942 0.845194 27.8958 0.895209 31.8541 0.914707C35.3352 0.931661 38.8189 0.936747 42.3019 0.943529C45.6783 0.949463 49.0546 0.952006 52.431 0.95794C56.0961 0.963027 59.7612 0.968113 63.4263 0.974895C65.2812 0.977438 67.1373 0.991001 68.9903 0.983372C73.8364 0.966417 78.6813 0.944377 83.5261 0.918945C86.4362 0.904534 89.3431 0.875712 92.2532 0.866387C95.5159 0.854519 98.7798 0.85791 102.044 0.85028C103.223 0.84689 104.403 0.82061 105.579 0.824001C110.538 0.838412 115.496 0.856214 120.452 0.883341C121.845 0.890971 123.233 0.961331 124.617 0.957093C127.509 0.948615 130.409 0.924879 133.281 0.875712C134.316 0.858758 134.87 0.875712 135.27 1.01474C135.881 1.22582 136.691 1.42842 136.334 1.67256C136.301 1.6963 136.328 1.72343 136.375 1.74716C137.026 2.06421 136.245 2.36939 136.05 2.6788C136.014 2.73475 135.898 2.79155 135.943 2.8458C136.235 3.19082 136.248 3.19082 133.959 3.32815L133.958 3.329Z" fill="#8d044f"/>
</svg>
