<svg viewBox="0 0 377.06 160.8" xmlns="http://www.w3.org/2000/svg"><g fill="#58595b"><path d="m238.9 128.32v4.76l40.27-.06v-4.76a22.55 22.55 0 0 1 -3.68-.62 31.43 31.43 0 0 1 -3.76-1.27 7.38 7.38 0 0 1 -3.91-3.16 10.33 10.33 0 0 1 -1.24-5.27l-.11-69.5-.91-.91-29.47 1.91v4.79a37.35 37.35 0 0 1 5.33.88 16.71 16.71 0 0 1 4.93 1.83 11.81 11.81 0 0 1 3.69 4 11 11 0 0 1 1.32 5.3l.09 52.74a10.36 10.36 0 0 1 -1.24 5.33 6.76 6.76 0 0 1 -3.87 3 16.07 16.07 0 0 1 -3.79.72z"/><path d="m257.38 2.71a9.66 9.66 0 0 0 -7.3 3.4 11.52 11.52 0 0 0 -3.1 8 11 11 0 0 0 3.13 7.68 9.71 9.71 0 0 0 7.29 3.34 9.9 9.9 0 0 0 7.6-3.54 12.19 12.19 0 0 0 3.11-8.3 10.48 10.48 0 0 0 -3-7.41 10.21 10.21 0 0 0 -7.73-3.17zm0 0a9.66 9.66 0 0 0 -7.3 3.4 11.52 11.52 0 0 0 -3.1 8 11 11 0 0 0 3.13 7.68 9.71 9.71 0 0 0 7.29 3.34 9.9 9.9 0 0 0 7.6-3.54 12.19 12.19 0 0 0 3.11-8.3 10.48 10.48 0 0 0 -3-7.41 10.21 10.21 0 0 0 -7.73-3.17z"/><path d="m298.69 157.85a6.72 6.72 0 0 1 -1 1.15 6.49 6.49 0 0 1 -1.38.95 7.89 7.89 0 0 1 -1.67.62 7.71 7.71 0 0 1 -1.89.23 8.48 8.48 0 0 1 -3.33-.64 7.93 7.93 0 0 1 -2.65-1.76 8 8 0 0 1 -1.76-2.67 9.25 9.25 0 0 1 0-6.76 8 8 0 0 1 4.41-4.43 8.66 8.66 0 0 1 3.33-.63 7.92 7.92 0 0 1 3 .59 6 6 0 0 1 2.57 1.95l-1.43 1.07a4 4 0 0 0 -.68-.78 5.57 5.57 0 0 0 -1-.68 6.55 6.55 0 0 0 -1.19-.47 4.3 4.3 0 0 0 -1.27-.19 6.5 6.5 0 0 0 -2.75.6 6.4 6.4 0 0 0 -2.08 1.52 6.67 6.67 0 0 0 -1.3 2.22 7.83 7.83 0 0 0 0 5.29 6.62 6.62 0 0 0 1.3 2.21 6.26 6.26 0 0 0 2.08 1.52 6.5 6.5 0 0 0 2.77.57 7.66 7.66 0 0 0 1.26-.11 5.58 5.58 0 0 0 1.22-.39 4.54 4.54 0 0 0 1.14-.74 5.86 5.86 0 0 0 1-1.17z"/><path d="m304.36 158.89h7.49v1.5h-9.12v-16.08h1.63z"/><path d="m318.12 160.39h-1.63v-16.08h1.63z"/><path d="m335 157.94v-13.63h1.63v16.08h-2l-9.58-13.76h-.05v13.76h-1.63v-16.08h2z"/><path d="m343.57 160.39h-1.63v-16.08h1.63z"/><path d="m362.62 157.85a6.31 6.31 0 0 1 -1 1.15 6.42 6.42 0 0 1 -1.37.95 8.1 8.1 0 0 1 -1.67.62 7.79 7.79 0 0 1 -1.9.23 8.47 8.47 0 0 1 -3.32-.64 8 8 0 0 1 -4.42-4.43 9.25 9.25 0 0 1 0-6.76 8 8 0 0 1 1.76-2.67 8.13 8.13 0 0 1 2.66-1.76 8.65 8.65 0 0 1 3.32-.63 8 8 0 0 1 3 .59 6 6 0 0 1 2.56 1.95l-1.43 1.07a3.65 3.65 0 0 0 -.68-.78 5.15 5.15 0 0 0 -1-.68 6.65 6.65 0 0 0 -1.2-.47 4.25 4.25 0 0 0 -1.27-.19 6.5 6.5 0 0 0 -2.77.57 6.35 6.35 0 0 0 -2.07 1.52 6.69 6.69 0 0 0 -1.31 2.22 8 8 0 0 0 0 5.29 6.64 6.64 0 0 0 1.31 2.21 6.21 6.21 0 0 0 2.07 1.52 6.5 6.5 0 0 0 2.77.57 7.47 7.47 0 0 0 1.26-.11 5.49 5.49 0 0 0 1.23-.39 4.49 4.49 0 0 0 1.13-.74 5.27 5.27 0 0 0 1-1.17z"/><path d="m374.77 147a3.54 3.54 0 0 0 -3.11-1.57 4.77 4.77 0 0 0 -1.25.17 3.4 3.4 0 0 0 -1.1.53 2.55 2.55 0 0 0 -.79.9 2.87 2.87 0 0 0 -.29 1.31 2.25 2.25 0 0 0 .61 1.69 5 5 0 0 0 1.52 1 16 16 0 0 0 2 .69 9.55 9.55 0 0 1 2 .82 4.79 4.79 0 0 1 1.52 1.35 3.8 3.8 0 0 1 .61 2.29 4.15 4.15 0 0 1 -.47 2 4.43 4.43 0 0 1 -1.22 1.46 5.69 5.69 0 0 1 -1.7.91 6 6 0 0 1 -1.9.32 7.18 7.18 0 0 1 -2.8-.56 5.29 5.29 0 0 1 -2.26-1.83l1.49-1.06a4 4 0 0 0 1.45 1.42 4.4 4.4 0 0 0 2.2.53 4.31 4.31 0 0 0 1.22-.19 3.6 3.6 0 0 0 1.1-.57 3.22 3.22 0 0 0 .8-.92 2.45 2.45 0 0 0 .32-1.25 2.62 2.62 0 0 0 -.35-1.4 3.17 3.17 0 0 0 -.93-.93 6.19 6.19 0 0 0 -1.32-.62l-1.52-.5c-.52-.17-1-.36-1.52-.57a5.28 5.28 0 0 1 -1.32-.8 3.58 3.58 0 0 1 -.93-1.23 4.21 4.21 0 0 1 -.35-1.85 4.3 4.3 0 0 1 .44-2 4.23 4.23 0 0 1 1.18-1.43 5 5 0 0 1 1.67-.84 6.83 6.83 0 0 1 1.91-.27 6.74 6.74 0 0 1 2.47.43 5.28 5.28 0 0 1 2.07 1.52z"/><path d="m2.81 128.69v4.77l40.27-.07v-4.76a22.55 22.55 0 0 1 -3.68-.63 31.43 31.43 0 0 1 -3.76-1.27 7.38 7.38 0 0 1 -3.91-3.16 10.43 10.43 0 0 1 -1.24-5.27l-.11-69.5-.91-.91-29.47 1.92v4.79a37.7 37.7 0 0 1 5.34.88 16.63 16.63 0 0 1 4.92 1.83 11.81 11.81 0 0 1 3.69 4 11 11 0 0 1 1.33 5.31l.08 52.73a10.26 10.26 0 0 1 -1.24 5.33 6.73 6.73 0 0 1 -3.86 3 16.26 16.26 0 0 1 -3.8.72z"/><path d="m60.66 126.93.44.26a62.72 62.72 0 0 0 14.11 6.13 55 55 0 0 0 16.25 2.51h.08c11.73 0 21.68-3.55 29.57-10.5a33.88 33.88 0 0 0 11.89-26.52 34.81 34.81 0 0 0 -1.91-11.81 28.29 28.29 0 0 0 -5.68-9.32 37.47 37.47 0 0 0 -8.26-6.57 88.66 88.66 0 0 0 -10-5.07c-3.8-1.66-7.77-3.24-11.82-4.7s-8.28-3.23-12.49-5.24a27.84 27.84 0 0 1 -11-8.77c-2.55-3.58-3.84-8.13-3.84-13.53a17.37 17.37 0 0 1 6-13.29 20.61 20.61 0 0 1 14.37-5.44h.06a27.34 27.34 0 0 1 13.36 3 29 29 0 0 1 9.21 8.17 48.43 48.43 0 0 1 6.3 11.76c1.55 4.16 3 8.57 4.23 13.11h6.13l-.74-39.83h-6.16l-3.66 6.09-.43-.27a72.89 72.89 0 0 0 -12.2-6 41.69 41.69 0 0 0 -15-2.54h-.08a40.4 40.4 0 0 0 -14.13 2.55 36.74 36.74 0 0 0 -11.71 7 33.81 33.81 0 0 0 -8 10.69 30.07 30.07 0 0 0 -2.8 12.88c0 8 1.93 14.56 5.7 19.49a40.46 40.46 0 0 0 16 12.09c3.55 1.53 7.76 3.25 12.55 5.05s9.14 3.44 12.94 4.94a26.22 26.22 0 0 1 12.64 9.85 25.32 25.32 0 0 1 4.27 14 27.72 27.72 0 0 1 -1.36 9.07 18.57 18.57 0 0 1 -4.22 6.91 18.89 18.89 0 0 1 -7.42 4.57 32.17 32.17 0 0 1 -10.61 1.6h-.04a31.41 31.41 0 0 1 -14.2-3.03 35.3 35.3 0 0 1 -10.66-8.22 49.49 49.49 0 0 1 -7.77-11.86 92.82 92.82 0 0 1 -5-13.79h-6.15l1.25 41.14h6.16z"/><path d="m142.06 128.47v4.77l40.87-.07v-4.76a28.1 28.1 0 0 1 -4-.57 25.56 25.56 0 0 1 -4.07-1.32 7.17 7.17 0 0 1 -3.89-3.21 11.06 11.06 0 0 1 -1.2-5.4v-20.5l7.66-7.16.34.42c5.54 7 11 14.32 16.11 21.74l14.38 20.72h25v-4.75a22.8 22.8 0 0 1 -8.58-1.92c-2.08-1.07-4.45-3.36-7-6.81-2.72-3.63-7.09-9.58-13-17.68s-11.3-15.15-16-21l-.3-.36.35-.32c4.53-4.19 8.11-7.63 10.64-10.21s4.53-4.51 5.93-5.67a55.44 55.44 0 0 1 8.6-5.92 59.52 59.52 0 0 1 12.61-5.38v-4.5l-36.61.06v4.61a45.73 45.73 0 0 1 6.88 1.51c2.74.82 4.13 2.15 4.14 4a4.56 4.56 0 0 1 -.9 2.32 20.75 20.75 0 0 1 -1.56 2.11c-3.58 4-8 8.71-13.23 13.86s-10.09 10-14.6 14.54l-.85.85-.22-91.47-.92-1-30.94 1.91v4.62c1.52.12 3.46.31 5.75.56a12.22 12.22 0 0 1 5.94 1.91 11.18 11.18 0 0 1 3.67 4.48 14.46 14.46 0 0 1 1.4 6.24l.16 99.42a10.11 10.11 0 0 1 -1.28 5.35 6.91 6.91 0 0 1 -3.88 3 21.11 21.11 0 0 1 -3.72.68c-1.27.08-2.5.2-3.68.3z"/><path d="m283.64 128.25v4.75l40.88-.06v-4.76a36 36 0 0 1 -4-.57 17.43 17.43 0 0 1 -4.06-1.34 8.35 8.35 0 0 1 -3.86-3.12 9.46 9.46 0 0 1 -1.3-5.12l-.07-49.29.06-.11a40 40 0 0 1 2.5-3.74 19.75 19.75 0 0 1 4.68-4.42 31 31 0 0 1 6.88-3.58 24.48 24.48 0 0 1 8.6-1.47 13.93 13.93 0 0 1 10.83 5.09c2.94 3.37 4.44 8.21 4.45 14.37l.07 44a10.36 10.36 0 0 1 -1.24 5.33 6.76 6.76 0 0 1 -3.87 2.95 16.93 16.93 0 0 1 -4.06.73c-1.41.1-2.71.2-3.91.31v4.76l40.78-.06v-4.76a26.61 26.61 0 0 1 -3.82-.49 23.74 23.74 0 0 1 -3.68-1.24 7.34 7.34 0 0 1 -3.8-3.11 10.55 10.55 0 0 1 -1.12-5.14l-.07-44.48c0-8.34-2-15.1-5.86-20.1s-9.83-7.45-17.81-7.45h-.06a33.09 33.09 0 0 0 -9.78 1.35 30.62 30.62 0 0 0 -7.5 3.42 45.16 45.16 0 0 0 -5.82 4.68c-2.07 1.94-3.82 3.62-5.18 5l-.15.15h-1.14v-12.34l-.9-.91-27.75 1.91v4.79a34.55 34.55 0 0 1 4.46.61 12.4 12.4 0 0 1 4.07 1.58 11.4 11.4 0 0 1 3.7 4.22 12.41 12.41 0 0 1 1.32 5.63l.08 52.74a10.36 10.36 0 0 1 -1.23 5.33 6.76 6.76 0 0 1 -3.87 3 16.79 16.79 0 0 1 -3.8.72z"/><path d="m3.06 152.1h276.14v1.8h-276.14z"/><path d="m21.3 3.08a9.63 9.63 0 0 0 -7.3 3.4 11.48 11.48 0 0 0 -3.11 8 11 11 0 0 0 3.11 7.67 9.71 9.71 0 0 0 7.29 3.34 9.83 9.83 0 0 0 7.71-3.49 12.17 12.17 0 0 0 3.11-8.3 10.45 10.45 0 0 0 -3-7.41 10.24 10.24 0 0 0 -7.81-3.21z"/></g></svg>